<?xml version="1.0" encoding="UTF-8" standalone="no"?>
<!-- Created with Inkscape (http://www.inkscape.org/) -->

<svg
   width="8.4666681mm"
   height="8.4666681mm"
   viewBox="0 0 8.4666681 8.4666681"
   version="1.1"
   id="svg1696"
   inkscape:version="1.2.2 (b0a8486541, 2022-12-01)"
   sodipodi:docname="logo.svg"
   xmlns:inkscape="http://www.inkscape.org/namespaces/inkscape"
   xmlns:sodipodi="http://sodipodi.sourceforge.net/DTD/sodipodi-0.dtd"
   xmlns="http://www.w3.org/2000/svg"
   xmlns:svg="http://www.w3.org/2000/svg">
  <sodipodi:namedview
     id="namedview1698"
     pagecolor="#505050"
     bordercolor="#ffffff"
     borderopacity="1"
     inkscape:showpageshadow="0"
     inkscape:pageopacity="0"
     inkscape:pagecheckerboard="1"
     inkscape:deskcolor="#505050"
     inkscape:document-units="mm"
     showgrid="false"
     inkscape:zoom="15.884269"
     inkscape:cx="8.4360194"
     inkscape:cy="24.804415"
     inkscape:window-width="1504"
     inkscape:window-height="1043"
     inkscape:window-x="26"
     inkscape:window-y="23"
     inkscape:window-maximized="0"
     inkscape:current-layer="layer1" />
  <defs
     id="defs1693" />
  <g
     inkscape:label="Layer 1"
     inkscape:groupmode="layer"
     id="layer1"
     transform="translate(-132.95956,-215.87834)">
    <rect
       style="fill:none;fill-opacity:1;stroke-width:2.619;stroke-linecap:round;stroke-linejoin:round;stop-color:#000000"
       id="rect318-6"
       width="8.4666615"
       height="8.4666615"
       x="132.95956"
       y="215.87834" />
    <circle
       style="fill:#0287cb;fill-opacity:1;stroke-width:2.619;stroke-linecap:round;stroke-linejoin:round;stop-color:#000000"
       id="path1377"
       cx="137.1929"
       cy="220.11168"
       r="4.2333307" />
    <path
       class="fil2"
       d="m 141.02936,220.11184 c 0,2.11861 -1.71773,3.8363 -3.83669,3.8363 -2.11865,0 -3.83622,-1.71769 -3.83622,-3.8363 0,-2.11892 1.71757,-3.83662 3.83622,-3.83662 2.11896,0 3.83669,1.7177 3.83669,3.83662 z m -3.39377,1.96195 c 0.2073,-0.63967 0.80845,-1.10225 1.51735,-1.10225 0.0242,0 0.0483,2.7e-4 0.0723,9.3e-4 0.20399,-0.3446 0.32133,-0.74694 0.32133,-1.17633 0,-1.27682 -1.03542,-2.31207 -2.31195,-2.31207 -1.2767,0 -2.31213,1.03525 -2.31213,2.31207 0,0.42939 0.11719,0.83172 0.32135,1.17633 0.0241,-9.3e-4 0.0481,-9.3e-4 0.0723,-9.3e-4 0.7089,0 1.31004,0.46258 1.51735,1.10225 0.0506,0.15525 0.18764,0.69457 0.18764,0.86632 v 0 0.57739 c -1.80344,-0.0895 -3.23869,-1.57975 -3.23869,-3.40566 0,-1.88316 1.52677,-3.40991 3.41014,-3.40991 1.88319,0 3.41012,1.52674 3.41012,3.40991 0,1.79744 -1.39088,3.27024 -3.15485,3.40032 v -0.57346 c 7.9e-4,-0.17364 0.13716,-0.71029 0.18764,-0.86491 z m -0.18764,-3.8116 c 0.1845,-0.073 0.37386,-0.13432 0.56607,-0.18292 -0.17601,-0.0796 -0.36632,-0.13354 -0.56607,-0.15619 z m 1.06687,0.15067 c -0.36757,0.0558 -0.72634,0.16075 -1.06687,0.3119 v 0.5217 c 0.44151,-0.22711 0.9217,-0.36221 1.41526,-0.40028 -0.0943,-0.16153 -0.21171,-0.30718 -0.34839,-0.43332 z m 0.5288,0.85043 c -0.56278,0.0183 -1.1106,0.17837 -1.59567,0.47138 v 0.693 c 0.2323,-0.18546 0.49435,-0.33251 0.77636,-0.4341 0.28831,-0.10429 0.59077,-0.15839 0.89544,-0.16202 0,-0.0116 0,-0.0233 0,-0.0349 0,-0.18528 -0.0268,-0.36443 -0.0763,-0.53335 z m 0.019,0.99624 c -0.23593,0.009 -0.46997,0.0542 -0.69395,0.13526 -0.35279,0.1271 -0.66816,0.33864 -0.92076,0.61513 v 0.46982 c 0.3314,-0.51967 0.88835,-0.8668 1.51389,-0.92579 0.0419,-0.0954 0.0755,-0.19392 0.10082,-0.29442 z m -2.04142,1.22036 v -3.55681 c -0.94105,0.10617 -1.67197,0.90407 -1.67197,1.87356 0,0.26235 0.0537,0.5192 0.15791,0.75731 0.6257,0.059 1.18264,0.40612 1.51406,0.92594 z"
       id="path12713-7"
       style="clip-rule:evenodd;opacity:0.99;fill:#ffffff;fill-opacity:1;fill-rule:evenodd;stroke-width:0.000258115;image-rendering:optimizeQuality;shape-rendering:geometricPrecision;text-rendering:geometricPrecision" />
  </g>
</svg>
